# xmcd
#
# Track frame offsets: 
#        151
#        14321
#        29233
#        42561
#        56136
#        69164
#        82293
#        95814
#        109983
#        124373
#        138499
#        153107
#        164845
#        177611
#        189876
#        203041
#        215829
#        230189
#        244404
#        258329
#        272225
#        286338
#        299333
#
# Disc length: 4172 seconds
#
# Revision: 0
# Processed by: cddbd v1.5.2PL0 Copyright (c) Steve Scherf et al.
# Submitted via: ExactAudioCopy v0.95b4
#
DISCID=7d104a17
DTITLE=Blind Lemon Jefferson - Texas Blues - Box - CD1
DYEAR=2007
DGENRE=Blues
TTITLE0=I Want To Be Like Jesus In My Heart
TTITLE1=All I Want Is That Pure Religion
TTITLE2=Got The Blues
TTITLE3=Long Lonesome Blues
TTITLE4=Booster Blues
TTITLE5=Dry Southern Blues
TTITLE6=Black Horse Blues
TTITLE7=Corrina Blues #1
TTITLE8=Corrina Blues #2
TTITLE9=Got The Blues
TTITLE10=Long Lonesome Blues
TTITLE11=Jack O Diamonds #1
TTITLE12=Jack O Diamonds #2
TTITLE13=Chock House Blues
TTITLE14=Beggin Back
TTITLE15=Old Rounders Blues
TTITLE16=Stocking Feet Blues
TTITLE17=That Black Snake Moan
TTITLE18=Wartime Blues
TTITLE19=Broke And Hungry
TTITLE20=Shuckin Sugar Blues
TTITLE21=Booger Rooger Blues
TTITLE22=Rabbit Foot Blues
EXTD=
EXTT0=
EXTT1=
EXTT2=
EXTT3=
EXTT4=
EXTT5=
EXTT6=
EXTT7=
EXTT8=
EXTT9=
EXTT10=
EXTT11=
EXTT12=
EXTT13=
EXTT14=
EXTT15=
EXTT16=
EXTT17=
EXTT18=
EXTT19=
EXTT20=
EXTT21=
EXTT22=
PLAYORDER=
